/* XPM */
static char *image_xpm[] = {
/* width height ncolors chars_per_pixel */
"32 32 14 1",
"  c #003399",
". c #3366cc",
"+ c #99ccff",
"@ c #333399",
"# c #6666cc",
"$ c #ffffff",
"% c #6699cc",
"& c #336699",
"* c #99cccc",
"= c #ccffff",
"- c #666699",
"; c #cccccc",
"> c #ccccff",
", c #9999cc",
"$$$$$$$$$$$$$$$$$$$$$$$$$$$$$$$$",
"$$$$$$$$$$$$$$$$$$$$$$$$$$$$$$$$",
"$$$$$$$$$$$$$$$;$$$$$$$$$$$$$$$$",
"$$$$$$$$$$$$$$,&,$$$$$$$$$$$$$$$",
"$$$$$$$$$$$$=%&.&%;$$$$$$$$$$$$$",
"$$$$$$$$$$$=%&%&.&%$$$$$$$$$$$$$",
"$$$$$$$$$$;%&.&. &@%;$$$$$$$$$$$",
"$$$$$$$$$$%&#&%&%&%&,$$$$$$$$$$$",
"$$$$$$$$$* &&.&&&#&&&>$$$$$$$$$$",
"$$$$$$$$$&&&.&%&&&%&.&$$$$$$$$$$",
"$$$$$$$$&& &&.&& &&& &-$$$$$$$$$",
"$$$$$$$;.&.&.&%&.&.&%&%;$$$$$$$$",
"$$$$$$$,&& & &&&&& &&#&%$$$$$$$$",
"$$$$$$$.#&%&&&.%#&#&%&.&$$$$$$$$",
"$$$$$$;.&&&. &,$%.&.&&@&;$$$$$$$",
"$$$$$$>&%&%&%-$;=%#&.&& +$$$$$$$",
"$$$$$$-&&.&#&,;$;*@&&& &&$$$$$$$",
"$$$$$$%&.&%&.;$;$;.&&&.&&$$$$$$$",
"$$$$$$ & &&& ;;$;;&.&&@&&$$$$$$$",
"$$$$$$# .&.&%,$;$,%&%&.&%$$$$$$$",
"$$$$$$&&&&@&&%,>,&@&&#&.%$$$$$$$",
"$$$$$$*&.&#&.&&&.&.&.&%&*$$$$$$$",
"$$$$$$,&&.&&@&&.&&@&@&&#*$$$$$$$",
"$$$$$$$&%..&#&.&%.%&.&&&$$$$$$$$",
"$$$$$$$>&#&&&&&&&#&& & >$$$$$$$$",
"$$$$$$$$>&.&&&.&#&.&& >$$$$$$$$$",
"$$$$$$$$$%&& &@.&.&& %$$$$$$$$$$",
"$$$$$$$$$$, .&.&%.%&*$$$$$$$$$$$",
"$$$$$$$$$$$$,% &&,*$$$$$$$$$$$$$",
"$$$$$$$$$$$$$$$;$$$$$$$$$$$$$$$$",
"$$$$$$$$$$$$$$$$$$$$$$$$$$$$$$$$",
"$$$$$$$$$$$$$$$$$$$$$$$$$$$$$$$$",
};