/* XPM */
static char *image_xpm[] = {
/* width height ncolors chars_per_pixel */
"64 64 15 1",
"  c #003399",
". c #3366cc",
"+ c #333399",
"@ c #6666cc",
"# c #ffffff",
"$ c #6699cc",
"% c #336699",
"& c #999999",
"* c #99cccc",
"= c #ccffff",
"- c #666699",
"; c #cccccc",
"> c #ccccff",
", c #9999cc",
"' c #669999",
"################################################################",
"################################################################",
"################################################################",
"###############################;,>##############################",
"##############################;@%.;#############################",
"#############################*$%@%.;############################",
"############################,.%.%%+%,###########################",
"###########################,$.$%$%.%.*##########################",
"##########################$.%@%.%.+%%.,#########################",
"#########################$$%$%$%$%.%.%.,########################",
"########################-.%@%.%.%%%% %+%-#######################",
"#######################-$%$%$.$%$%.%.%.%$,######################",
"######################-%%%%-%@%.%% %%@%@%-,#####################",
"#####################*%%.%.%.%$%@%$%$%$%$%@>####################",
"####################;% %+%+% %%%-@%.%.%.%%+$####################",
"####################,%% .%.%.%.%$%$%$.$%@%.%>###################",
"###################; % % %+%%.%.%%+@%@%-%.+%%###################",
"###################%% % %%.%@%$%@ %%$%$%.%.%.%##################",
"##################-% % % %%@%.%.%% % .%% %%% %,#################",
"#################;% .%% %%$%$.$%@ % .%$%.%.%.%.;################",
"################>% %%%%%%% -%@%.%% % %%@%@%%%-%@################",
"################*%.%.%.%.%% @%$%% % @%.%@%$%$%$-;###############",
"################%-%% %%%+% % %%.%% % %%%%.%.%.%%%###############",
"###############>$.$%.%.%.%% .%@%$%@%.%.%@.$%$%.%.###############",
"###############;%@%@%.+% % % % %%%+%%.+%%@%.%.+% >##############",
"###############,$%$%$%@%%%%%%%.%*%$%@%@%@%$%.%.%%$##############",
"###############$%.%@%--% %%% %%;;;%@%.%.%-%% %%% %##############",
"###############%$.$%$%$%$%.%.%;###;%$.$%$%.%.%@ . ##############",
"##############,.%@%-%@%.%@+%%,;>;#;$%@%-%% %%.+% %,#############",
"##############,%@%$%.%$%@%$%.;###;>;$%@%.%.%.%% % $#############",
"##############%.%%+%+@%.%.%@'#;#;;&#&%%% %+% % % % #############",
"#############;$%$%.%$.$%$-$%;;;;####;%%%.%.%@%% .%%;############",
"#############*%%%.+%%@%@%.+%;;;#;#;#;% %%%+%%% % % ,############",
"#############'@%.%.%$%@%.%.'#*#;;;###%% % .%-%% % %%############",
"#############%+% %+%-%+% %+,;;;#;#,;;,%%%%%--%%%+%%$############",
"#############%% . %%@%@%% %-#;#;###;#-.%@%$%$%.%.%$$############",
"#############$ % % %%.+%%%+%;;;#;#;##-%-%@%.%.+%%$%,############",
"#############,% % @%@%.%.%.->;###;#;;-$%@%$%@%.%$%$*############",
"#############; % %%%%%%% %%.-;;#;&;#%%%@%.%.%%%@%.%>############",
"#############>% .%.%@%.%$.$%$,#;#;#'.%.%$%$%@%$%$.$#############",
"############## %+.+%%-%-%@%%%%%,*,%% %+%%.%@%@%.%@%#############",
"##############$ %%.%@-.%.%.%% %%$%.%% @%.%.%$%$%$%,#############",
"##############-%+%%@%%%% %%% %%%%.%%+%%% %%% %%.%.$#############",
"##############*%@%$%$%@%.%.%.%.%$.$%.%%%.%.%.%.%$.>#############",
"##############*-%@%.%-+%%%%%%.+%%@%.%.%%%% %%.+%%@;#############",
"###############$@%$%$%.%@%-%.%.%@%$%$%$%@%.%.%@%%-##############",
"################%.%.%%%%+-+% %%%%.%.%.%'+%+% % % ###############",
"################>.$%$%.%.%$%$%.%$.$%$%@%.%% .%% =###############",
"#################*%.%@+%%%%%%-%%%$%%%.+%%% % % ,################",
"##################,%$%.%% %%.%.%$%.%.%.%.+% % $#################",
"##################;$%%+% % %+%+%%.%@+%+% % % %;#################",
"###################;$%.%. % @%.%$.$%$%@%.%% .>##################",
"####################,@+% % % %+%%@%.%@%@%%%%,###################",
"#####################'% % % %%.%@%$%$%$%@%$,####################",
"######################;,+% % %%%%.%.%.%.%*;#####################",
"#########################;,%.%%%$.$%$$;;########################",
"############################;,%%%@-*;###########################",
"###############################;;;##############################",
"################################################################",
"################################################################",
"################################################################",
"################################################################",
"################################################################",
"################################################################",
};